<mxfile host="65bd71144e">
    <diagram id="l-TY9j8U-GY8H0CqGKjy" name="Page-1">
        <mxGraphModel dx="622" dy="960" grid="1" gridSize="10" guides="1" tooltips="1" connect="1" arrows="1" fold="1" page="1" pageScale="1" pageWidth="850" pageHeight="1100" math="0" shadow="0">
            <root>
                <mxCell id="0"/>
                <mxCell id="1" parent="0"/>
                <mxCell id="3" value="" style="ellipse;html=1;" vertex="1" parent="1">
                    <mxGeometry x="410" y="90" width="30" height="30" as="geometry"/>
                </mxCell>
                <mxCell id="4" value="" style="endArrow=open;html=1;rounded=0;align=center;verticalAlign=top;endFill=0;labelBackgroundColor=none;endSize=6;entryX=0.5;entryY=0;entryDx=0;entryDy=0;" edge="1" source="3" parent="1" target="5">
                    <mxGeometry relative="1" as="geometry">
                        <mxPoint x="425" y="150" as="targetPoint"/>
                    </mxGeometry>
                </mxCell>
                <mxCell id="5" value="Press transfer button" style="html=1;align=center;verticalAlign=top;rounded=1;absoluteArcSize=1;arcSize=10;dashed=0;" vertex="1" parent="1">
                    <mxGeometry x="355" y="150" width="140" height="30" as="geometry"/>
                </mxCell>
                <mxCell id="8" value="Select account&lt;br&gt;to transfer FROM" style="html=1;align=center;verticalAlign=top;rounded=1;absoluteArcSize=1;arcSize=10;dashed=0;" vertex="1" parent="1">
                    <mxGeometry x="355" y="210" width="140" height="40" as="geometry"/>
                </mxCell>
                <mxCell id="9" value="" style="endArrow=open;html=1;rounded=0;align=center;verticalAlign=top;endFill=0;labelBackgroundColor=none;endSize=6;entryX=0.5;entryY=0;entryDx=0;entryDy=0;exitX=0.5;exitY=1;exitDx=0;exitDy=0;" edge="1" parent="1" source="5" target="8">
                    <mxGeometry relative="1" as="geometry">
                        <mxPoint x="435" y="160" as="targetPoint"/>
                        <mxPoint x="435" y="100" as="sourcePoint"/>
                    </mxGeometry>
                </mxCell>
                <mxCell id="10" value="Select account&lt;br&gt;to transfer TO" style="html=1;align=center;verticalAlign=top;rounded=1;absoluteArcSize=1;arcSize=10;dashed=0;" vertex="1" parent="1">
                    <mxGeometry x="355" y="280" width="140" height="40" as="geometry"/>
                </mxCell>
                <mxCell id="11" value="" style="endArrow=open;html=1;rounded=0;align=center;verticalAlign=top;endFill=0;labelBackgroundColor=none;endSize=6;entryX=0.5;entryY=0;entryDx=0;entryDy=0;exitX=0.5;exitY=1;exitDx=0;exitDy=0;" edge="1" parent="1" source="8" target="10">
                    <mxGeometry relative="1" as="geometry">
                        <mxPoint x="435" y="240" as="targetPoint"/>
                        <mxPoint x="435" y="190" as="sourcePoint"/>
                    </mxGeometry>
                </mxCell>
                <mxCell id="12" value="Input amount&lt;br&gt;desired to transfer&lt;span style=&quot;color: rgba(0, 0, 0, 0); font-family: monospace; font-size: 0px; text-align: start;&quot;&gt;%3CmxGraphModel%3E%3Croot%3E%3CmxCell%20id%3D%220%22%2F%3E%3CmxCell%20id%3D%221%22%20parent%3D%220%22%2F%3E%3CmxCell%20id%3D%222%22%20value%3D%22Select%20Account%26lt%3Bbr%26gt%3BTo%20Transfer%20TO%22%20style%3D%22html%3D1%3Balign%3Dcenter%3BverticalAlign%3Dtop%3Brounded%3D1%3BabsoluteArcSize%3D1%3BarcSize%3D10%3Bdashed%3D0%3B%22%20vertex%3D%221%22%20parent%3D%221%22%3E%3CmxGeometry%20x%3D%22355%22%20y%3D%22320%22%20width%3D%22140%22%20height%3D%2240%22%20as%3D%22geometry%22%2F%3E%3C%2FmxCell%3E%3C%2Froot%3E%3C%2FmxGraphModel%3E&lt;/span&gt;" style="html=1;align=center;verticalAlign=top;rounded=1;absoluteArcSize=1;arcSize=10;dashed=0;" vertex="1" parent="1">
                    <mxGeometry x="355" y="350" width="140" height="40" as="geometry"/>
                </mxCell>
                <mxCell id="13" value="Check if account&lt;br&gt;has sufficient funds&lt;br&gt;" style="html=1;align=center;verticalAlign=top;rounded=1;absoluteArcSize=1;arcSize=10;dashed=0;" vertex="1" parent="1">
                    <mxGeometry x="355" y="420" width="140" height="40" as="geometry"/>
                </mxCell>
                <mxCell id="14" value="" style="endArrow=open;html=1;rounded=0;align=center;verticalAlign=top;endFill=0;labelBackgroundColor=none;endSize=6;entryX=0.5;entryY=0;entryDx=0;entryDy=0;exitX=0.5;exitY=1;exitDx=0;exitDy=0;" edge="1" parent="1" source="10" target="12">
                    <mxGeometry relative="1" as="geometry">
                        <mxPoint x="435" y="310" as="targetPoint"/>
                        <mxPoint x="435" y="270" as="sourcePoint"/>
                    </mxGeometry>
                </mxCell>
                <mxCell id="15" value="" style="endArrow=open;html=1;rounded=0;align=center;verticalAlign=top;endFill=0;labelBackgroundColor=none;endSize=6;entryX=0.5;entryY=0;entryDx=0;entryDy=0;exitX=0.5;exitY=1;exitDx=0;exitDy=0;" edge="1" parent="1" source="12" target="13">
                    <mxGeometry relative="1" as="geometry">
                        <mxPoint x="435" y="430" as="targetPoint"/>
                        <mxPoint x="435" y="350" as="sourcePoint"/>
                    </mxGeometry>
                </mxCell>
                <mxCell id="16" value="" style="rhombus;" vertex="1" parent="1">
                    <mxGeometry x="410" y="490" width="30" height="30" as="geometry"/>
                </mxCell>
                <mxCell id="17" value="" style="endArrow=open;html=1;rounded=0;align=center;verticalAlign=top;endFill=0;labelBackgroundColor=none;endSize=6;entryX=0.5;entryY=0;entryDx=0;entryDy=0;exitX=0.5;exitY=1;exitDx=0;exitDy=0;" edge="1" parent="1" source="13" target="16">
                    <mxGeometry relative="1" as="geometry">
                        <mxPoint x="435.0000000000001" y="430" as="targetPoint"/>
                        <mxPoint x="430" y="480" as="sourcePoint"/>
                    </mxGeometry>
                </mxCell>
                <mxCell id="20" value="Throw error" style="html=1;align=center;verticalAlign=top;rounded=1;absoluteArcSize=1;arcSize=10;dashed=0;" vertex="1" parent="1">
                    <mxGeometry x="540" y="425" width="140" height="30" as="geometry"/>
                </mxCell>
                <mxCell id="21" value="" style="endArrow=open;html=1;rounded=0;align=center;verticalAlign=top;endFill=0;labelBackgroundColor=none;endSize=6;exitX=0.5;exitY=0;exitDx=0;exitDy=0;entryX=1;entryY=0.5;entryDx=0;entryDy=0;" edge="1" parent="1" source="20" target="12">
                    <mxGeometry relative="1" as="geometry">
                        <mxPoint x="620" y="465" as="targetPoint"/>
                        <mxPoint x="450" y="515" as="sourcePoint"/>
                        <Array as="points">
                            <mxPoint x="610" y="370"/>
                        </Array>
                    </mxGeometry>
                </mxCell>
                <mxCell id="26" value="Sufficient" style="html=1;verticalAlign=bottom;labelBackgroundColor=none;endArrow=open;endFill=0;exitX=0;exitY=0.5;exitDx=0;exitDy=0;" edge="1" parent="1" source="16">
                    <mxGeometry width="160" relative="1" as="geometry">
                        <mxPoint x="470" y="580" as="sourcePoint"/>
                        <mxPoint x="300" y="505" as="targetPoint"/>
                    </mxGeometry>
                </mxCell>
                <mxCell id="27" value="Insufficient" style="html=1;verticalAlign=bottom;labelBackgroundColor=none;endArrow=open;endFill=0;exitX=1;exitY=0.5;exitDx=0;exitDy=0;entryX=0.5;entryY=1;entryDx=0;entryDy=0;" edge="1" parent="1" source="16" target="20">
                    <mxGeometry width="160" relative="1" as="geometry">
                        <mxPoint x="420" y="515" as="sourcePoint"/>
                        <mxPoint x="620" y="505" as="targetPoint"/>
                        <Array as="points">
                            <mxPoint x="610" y="505"/>
                        </Array>
                    </mxGeometry>
                </mxCell>
                <mxCell id="28" value="Move specified amount&lt;br&gt;from one acocunt to&lt;br&gt;another" style="html=1;align=center;verticalAlign=top;rounded=1;absoluteArcSize=1;arcSize=10;dashed=0;" vertex="1" parent="1">
                    <mxGeometry x="160" y="485" width="140" height="55" as="geometry"/>
                </mxCell>
                <mxCell id="29" value="" style="ellipse;html=1;shape=endState;fillColor=strokeColor;" vertex="1" parent="1">
                    <mxGeometry x="215" y="590" width="30" height="30" as="geometry"/>
                </mxCell>
                <mxCell id="30" value="" style="endArrow=open;html=1;rounded=0;align=center;verticalAlign=top;endFill=0;labelBackgroundColor=none;endSize=6;entryX=0.5;entryY=0;entryDx=0;entryDy=0;exitX=0.5;exitY=1;exitDx=0;exitDy=0;" edge="1" parent="1" source="28" target="29">
                    <mxGeometry relative="1" as="geometry">
                        <mxPoint x="435" y="430" as="targetPoint"/>
                        <mxPoint x="435" y="400" as="sourcePoint"/>
                    </mxGeometry>
                </mxCell>
            </root>
        </mxGraphModel>
    </diagram>
</mxfile>